{"title":"FakeAgentUK.E20.Chessie.XXX.1080p.MOV-KTR","uid":8957073,"size":1935593476,"categoryP":"porn","categoryS":"movie_clips","magnet":"?xt=urn:btih:4b4d3a8d77297e40c1875f8e7ea6109833f5be04&amp;dn=FakeAgentUK.E20.Chessie.XXX.1080p.MOV-KTR&amp;tr=udp%3A%2F%2Ftracker.openbittorrent.com%3A80&amp;tr=udp%3A%2F%2Fopen.demonii.com%3A1337&amp;tr=udp%3A%2F%2Ftracker.coppersurfer.tk%3A6969&amp;tr=udp%3A%2F%2Fexodus.desync.com%3A6969","seeders":0,"leechers":0,"uploader":null,"files":2,"time":1379981796,"description":"When a girl tells you she has a party trick, you know your in for something good and Chessie didn't disappoint. She can only go and wrap her fucking legs round her head! Neat trick girl, neat trick....\n\nFormat : MPEG-4\nFormat profile : QuickTime\nCodec ID : qt\nFile size : 1.80 GiB\nDuration : 43mn 41s\nOverall bit rate : 5 907 Kbps\nEncoded date : UTC 2013-09-18 17:54:33\nTagged date : UTC 2013-09-19 02:39:03\nWriting library : Apple QuickTime\nMedia/UUID : 67FFEF61-3279-4F5A-A7FC-EBBA0CF5D998\n\nVideo\nID : 1\nFormat : AVC\nFormat/Info : Advanced Video Codec\nFormat profile : &lt;a class=&quot;__cf_email__&quot; href=&quot;/cdn-cgi/l/email-protection&quot; data-cfemail=&quot;db96bab2b59b97eff5eb&quot;&gt;[email&amp;#160;protected]&lt;/a&gt;&lt;script cf-hash='f9e31' type=&quot;text/javascript&quot;&gt;\n/* &lt;![CDATA[ */!function(){try{var t=&quot;currentScript&quot;in document?document.currentScript:function(){for(var t=document.getElementsByTagName(&quot;script&quot;),e=t.length;e--;)if(t[e].getAttribute(&quot;cf-hash&quot;))return t[e]}();if(t&amp;&amp;t.previousSibling){var e,r,n,i,c=t.previousSibling,a=c.getAttribute(&quot;data-cfemail&quot;);if(a){for(e=&quot;&quot;,r=parseInt(a.substr(0,2),16),n=2;a.length-n;n+=2)i=parseInt(a.substr(n,2),16)^r,e+=String.fromCharCode(i);e=document.createTextNode(e),c.parentNode.replaceChild(e,c)}}}catch(u){}}();/* ]]&gt; */&lt;/script&gt;\nFormat settings, CABAC : No\nFormat settings, ReFrames : 2 frames\nFormat settings, GOP : M=2, N=50\nCodec ID : avc1\nCodec ID/Info : Advanced Video Coding\nDuration : 43mn 41s\nBit rate : 5 777 Kbps\nWidth : 1 888 pixels\nOriginal width : 1 920 pixels\nHeight : 1 062 pixels\nOriginal height : 1 080 pixels\nDisplay aspect ratio : 16:9\nFrame rate mode : Constant\nFrame rate : 25.000 fps\nColor space : YUV\nChroma subsampling : 4:2:0\nBit depth : 8 bits\nScan type : Progressive\nBits/(Pixel*Frame) : 0.115\nStream size : 1.76 GiB (98%)\nLanguage : English\nEncoded date : UTC 2013-09-19 02:34:40\nTagged date : UTC 2013-09-19 02:39:03\nColor primaries : BT.709\nTransfer characteristics : BT.709\nMatrix coefficients : BT.709\n\nAudio\nID : 2\nFormat : AAC\nFormat/Info : Advanced Audio Codec\nFormat profile : LC\nCodec ID : 40\nDuration : 43mn 41s\nSource duration : 43mn 41s\nBit rate mode : Constant\nBit rate : 128 Kbps\nChannel(s) : 2 channels\nChannel positions : Front: L R\nSampling rate : 44.1 KHz\nCompression mode : Lossy\nStream size : 39.3 MiB (2%)\nSource stream size : 39.3 MiB (2%)\nLanguage : English\nEncoded date : UTC 2013-09-19 02:34:40\nTagged date : UTC 2013-09-19 02:39:03\n\nMenu\nID : 3\nDuration : 43mn 41s\nLanguage : English\nEncoded date : UTC 2013-09-19 02:39:03\nTagged date : UTC 2013-09-19 02:39:03","torrent":{"xt":"urn:btih:4b4d3a8d77297e40c1875f8e7ea6109833f5be04","amp;dn":"FakeAgentUK.E20.Chessie.XXX.1080p.MOV-KTR","amp;tr":["udp%3A%2F%2Ftracker.openbittorrent.com%3A80","udp%3A%2F%2Fopen.demonii.com%3A1337","udp%3A%2F%2Ftracker.coppersurfer.tk%3A6969","udp%3A%2F%2Fexodus.desync.com%3A6969"],"infoHash":"4b4d3a8d77297e40c1875f8e7ea6109833f5be04","infoHashBuffer":{"type":"Buffer","data":[75,77,58,141,119,41,126,64,193,135,95,142,126,166,16,152,51,245,190,4]},"announce":[],"urlList":[]}}